<?xml version="1.0" standalone="no"?>
<!DOCTYPE svg PUBLIC "-//W3C//DTD SVG 20010904//EN"
 "http://www.w3.org/TR/2001/REC-SVG-20010904/DTD/svg10.dtd">
<svg version="1.0" xmlns="http://www.w3.org/2000/svg"
 width="611.000000pt" height="614.000000pt" viewBox="0 0 611.000000 614.000000"
 preserveAspectRatio="xMidYMid meet">

<g transform="translate(0.000000,614.000000) scale(0.100000,-0.100000)"
fill="#000000" stroke="none">
<path d="M3205 3913 c-85 -8 -184 -37 -274 -81 -74 -36 -109 -61 -165 -116
-95 -95 -131 -143 -156 -208 -27 -68 -33 -73 -61 -55 -41 26 -151 49 -239 50
-179 1 -319 -65 -393 -185 -10 -16 -24 -28 -32 -28 -31 0 -129 -55 -169 -96
-24 -23 -56 -69 -71 -101 -37 -78 -40 -201 -6 -277 28 -64 83 -131 135 -163
89 -57 225 -78 306 -49 35 13 35 12 74 -31 21 -24 60 -55 86 -68 l47 -24 276
287 c151 158 273 288 272 290 -2 2 -94 7 -204 10 l-202 7 506 410 c437 354
502 411 482 416 -34 9 -165 17 -212 12z"/>
<path d="M3928 3910 c-83 -10 -168 -34 -230 -66 -39 -20 -68 -52 -172 -188
-70 -91 -126 -167 -126 -169 0 -3 60 -8 134 -12 74 -4 158 -10 187 -13 l52 -7
-337 -330 -337 -330 178 -12 c98 -6 193 -13 212 -15 32 -3 27 -9 -188 -182
-122 -98 -220 -180 -218 -182 6 -6 120 46 139 63 15 14 23 12 76 -21 33 -20
64 -36 69 -36 5 0 33 -11 62 -25 94 -46 211 -84 340 -112 116 -24 145 -27 351
-27 207 0 234 2 336 26 198 47 316 124 377 247 29 60 32 73 32 161 -1 84 -4
101 -28 148 -29 55 -106 137 -139 148 -13 4 -17 11 -13 22 60 156 41 389 -44
549 -135 253 -422 399 -713 363z"/>
</g>
</svg>
